<?xml version="1.0" encoding="utf-8"?>
<!-- Svg Vector Icons : http://www.onlinewebfonts.com/icon -->
<!DOCTYPE svg PUBLIC "-//W3C//DTD SVG 1.1//EN" "http://www.w3.org/Graphics/SVG/1.1/DTD/svg11.dtd">
<svg version="1.1" xmlns="http://www.w3.org/2000/svg" xmlns:xlink="http://www.w3.org/1999/xlink" x="0px" y="0px" viewBox="0 0 256 256" enable-background="new 0 0 256 256" xml:space="preserve">
<metadata> Svg Vector Icons : http://www.onlinewebfonts.com/icon </metadata>
<g><g><g><path fill="#000000" d="M184.4,40.5c-0.8,0.5-1.7,1.6-2,2.4c-0.4,1.1-0.5,23.5-0.5,82.8V207h-4.8h-4.8v-42.5c0-30.3-0.1-42.7-0.5-43.4c-1.3-2.6-1.1-2.6-19.2-2.6h-16.7l-1.3,1.1l-1.3,1.1l-0.2,43.1l-0.2,43H128h-4.8l-0.2-67.3c-0.1-37-0.4-67.7-0.6-68.1c-1-2-2.1-2.2-19.2-2.2H86.9l-1.6,1.6l-1.6,1.6v67.4v67.4h-4.8h-4.8v-27.2c0-29.3,0-29.4-2.3-31.1c-1-0.6-3.1-0.7-17.6-0.7H37.6l-1.5,1.3l-1.5,1.3l-0.1,28.2l-0.1,28.2H23.7c-9.4,0-10.8,0.1-11.7,0.8c-2.4,1.9-2.7,4.9-0.7,7.1l1.3,1.5H128h115.3l1.3-1.5c1.4-1.6,1.7-3.4,0.8-5.4c-1.1-2.3-2.2-2.5-13.5-2.5h-10.4v-81.4c0-69.3-0.1-81.6-0.6-83c-1.2-3-1.7-3-19.3-3C187,39.6,185.8,39.6,184.4,40.5z M211.4,128.1v78.8h-9.7h-9.7v-78.8V49.3h9.7h9.7V128.1z M113.2,142.9v64.1l-9.8-0.1l-9.8-0.1l-0.1-63.4c0-34.9,0-63.7,0.1-64c0.1-0.4,2.6-0.6,9.9-0.6h9.7L113.2,142.9L113.2,142.9z M162.5,167.4l-0.1,39.3l-9.8,0.1l-9.8,0.1v-39.4v-39.4h9.9h9.9L162.5,167.4z M63.9,182.3v24.7h-9.7h-9.7v-24.7v-24.7h9.7h9.7V182.3z"/></g></g></g>
</svg>